<svg id="erIXga2uZHS1" xmlns="http://www.w3.org/2000/svg" xmlns:xlink="http://www.w3.org/1999/xlink" viewBox="0 0 600 600" shape-rendering="geometricPrecision" text-rendering="geometricPrecision"><defs><filter id="erIXga2uZHS2-filter" x="-150%" width="400%" y="-150%" height="400%"><feGaussianBlur id="erIXga2uZHS2-filter-drop-shadow-0-blur" in="SourceAlpha" stdDeviation="20,10"/><feOffset id="erIXga2uZHS2-filter-drop-shadow-0-offset" dx="0" dy="0" result="tmp"/><feFlood id="erIXga2uZHS2-filter-drop-shadow-0-flood" flood-color="#000"/><feComposite id="erIXga2uZHS2-filter-drop-shadow-0-composite" operator="in" in2="tmp"/><feMerge id="erIXga2uZHS2-filter-drop-shadow-0-merge" result="result"><feMergeNode id="erIXga2uZHS2-filter-drop-shadow-0-merge-node-1"/><feMergeNode id="erIXga2uZHS2-filter-drop-shadow-0-merge-node-2" in="SourceGraphic"/></feMerge></filter><filter id="erIXga2uZHS3-filter" x="-150%" width="400%" y="-150%" height="400%"><feGaussianBlur id="erIXga2uZHS3-filter-drop-shadow-0-blur" in="SourceAlpha" stdDeviation="60,60"/><feOffset id="erIXga2uZHS3-filter-drop-shadow-0-offset" dx="0" dy="0" result="tmp"/><feFlood id="erIXga2uZHS3-filter-drop-shadow-0-flood" flood-color="#000"/><feComposite id="erIXga2uZHS3-filter-drop-shadow-0-composite" operator="in" in2="tmp"/><feMerge id="erIXga2uZHS3-filter-drop-shadow-0-merge" result="result"><feMergeNode id="erIXga2uZHS3-filter-drop-shadow-0-merge-node-1"/><feMergeNode id="erIXga2uZHS3-filter-drop-shadow-0-merge-node-2" in="SourceGraphic"/></feMerge></filter><filter id="erIXga2uZHS4-filter" x="-150%" width="400%" y="-150%" height="400%"><feGaussianBlur id="erIXga2uZHS4-filter-drop-shadow-0-blur" in="SourceAlpha" stdDeviation="20,10"/><feOffset id="erIXga2uZHS4-filter-drop-shadow-0-offset" dx="0" dy="0" result="tmp"/><feFlood id="erIXga2uZHS4-filter-drop-shadow-0-flood" flood-color="#000"/><feComposite id="erIXga2uZHS4-filter-drop-shadow-0-composite" operator="in" in2="tmp"/><feMerge id="erIXga2uZHS4-filter-drop-shadow-0-merge" result="result"><feMergeNode id="erIXga2uZHS4-filter-drop-shadow-0-merge-node-1"/><feMergeNode id="erIXga2uZHS4-filter-drop-shadow-0-merge-node-2" in="SourceGraphic"/></feMerge></filter><filter id="erIXga2uZHS5-filter" x="-150%" width="400%" y="-150%" height="400%"><feGaussianBlur id="erIXga2uZHS5-filter-drop-shadow-0-blur" in="SourceAlpha" stdDeviation="10,20"/><feOffset id="erIXga2uZHS5-filter-drop-shadow-0-offset" dx="0" dy="0" result="tmp"/><feFlood id="erIXga2uZHS5-filter-drop-shadow-0-flood" flood-color="#000"/><feComposite id="erIXga2uZHS5-filter-drop-shadow-0-composite" operator="in" in2="tmp"/><feMerge id="erIXga2uZHS5-filter-drop-shadow-0-merge" result="result"><feMergeNode id="erIXga2uZHS5-filter-drop-shadow-0-merge-node-1"/><feMergeNode id="erIXga2uZHS5-filter-drop-shadow-0-merge-node-2" in="SourceGraphic"/></feMerge></filter><filter id="erIXga2uZHS6-filter" x="-150%" width="400%" y="-150%" height="400%"><feGaussianBlur id="erIXga2uZHS6-filter-drop-shadow-0-blur" in="SourceAlpha" stdDeviation="60,60"/><feOffset id="erIXga2uZHS6-filter-drop-shadow-0-offset" dx="0" dy="0" result="tmp"/><feFlood id="erIXga2uZHS6-filter-drop-shadow-0-flood" flood-color="#000"/><feComposite id="erIXga2uZHS6-filter-drop-shadow-0-composite" operator="in" in2="tmp"/><feMerge id="erIXga2uZHS6-filter-drop-shadow-0-merge" result="result"><feMergeNode id="erIXga2uZHS6-filter-drop-shadow-0-merge-node-1"/><feMergeNode id="erIXga2uZHS6-filter-drop-shadow-0-merge-node-2" in="SourceGraphic"/></feMerge></filter><filter id="erIXga2uZHS7-filter" x="-150%" width="400%" y="-150%" height="400%"><feGaussianBlur id="erIXga2uZHS7-filter-drop-shadow-0-blur" in="SourceAlpha" stdDeviation="0,0"/><feOffset id="erIXga2uZHS7-filter-drop-shadow-0-offset" dx="0" dy="0" result="tmp"/><feFlood id="erIXga2uZHS7-filter-drop-shadow-0-flood" flood-color="#000"/><feComposite id="erIXga2uZHS7-filter-drop-shadow-0-composite" operator="in" in2="tmp"/><feMerge id="erIXga2uZHS7-filter-drop-shadow-0-merge" result="result"><feMergeNode id="erIXga2uZHS7-filter-drop-shadow-0-merge-node-1"/><feMergeNode id="erIXga2uZHS7-filter-drop-shadow-0-merge-node-2" in="SourceGraphic"/></feMerge><feComponentTransfer id="erIXga2uZHS7-filter-invert-0" result="result"><feFuncR id="erIXga2uZHS7-filter-invert-0-R" type="table" tableValues="0 1"/><feFuncG id="erIXga2uZHS7-filter-invert-0-G" type="table" tableValues="0 1"/><feFuncB id="erIXga2uZHS7-filter-invert-0-B" type="table" tableValues="0 1"/></feComponentTransfer></filter></defs><polygon points="0,-307.003955 29.182581,-305.613817 58.10088,-301.455993 86.493009,-294.568137 114.101844,-285.012627 140.677354,-272.875998 165.978869,-258.268161 189.777253,-241.321409 211.856986,-222.189212 232.018108,-201.044835 250.078039,-178.079765 265.873224,-153.501977 279.26062,-127.534052 290.118989,-100.411158 298.349995,-72.378925 303.879097,-43.691218 306.656223,-14.607836 306.656223,14.607836 303.879097,43.691218 298.349995,72.378926 290.118989,100.411158 279.26062,127.534052 265.873224,153.501977 250.078039,178.079765 232.018108,201.044835 211.856986,222.189212 189.777253,241.321409 165.978869,258.268162 140.677354,272.875998 114.101844,285.012627 86.493009,294.568138 58.10088,301.455993 29.182581,305.613817 0,307.003955 -29.182581,305.613817 -58.10088,301.455993 -86.493009,294.568138 -114.101844,285.012627 -140.677354,272.875998 -165.978869,258.268162 -189.777253,241.321409 -211.856986,222.189212 -232.018108,201.044835 -250.078039,178.079765 -265.873224,153.501977 -279.26062,127.534052 -290.118989,100.411158 -298.349995,72.378926 -303.879097,43.691218 -306.656223,14.607836 -306.656223,-14.607836 -303.879097,-43.691218 -298.349995,-72.378925 -290.118989,-100.411158 -279.26062,-127.534052 -265.873224,-153.501977 -250.078039,-178.079765 -232.018108,-201.044835 -211.856986,-222.189212 -189.777253,-241.321409 -165.978869,-258.268161 -140.677354,-272.875998 -114.101844,-285.012627 -86.493009,-294.568137 -58.10088,-301.455993 -29.182581,-305.613817 0,-307.003955" transform="matrix(-.342328 0.443997-.44946-.346541 216.262772 211.768641)" filter="url(#erIXga2uZHS2-filter)" fill="#d2dbed" stroke-width="0"/><polygon points="-17.437073,-307.003955 10.086129,-305.755995 37.360077,-302.023419 64.137774,-295.840029 90.176716,-287.261824 115.241091,-276.366487 139.103912,-263.252689 161.549074,-248.039192 182.37331,-230.863769 201.388031,-211.881966 218.421039,-191.265683 233.318079,-169.201626 245.944241,-145.88961 256.185182,-121.540752 263.948157,-96.375558 269.162863,-70.62193 271.782076,-44.513095 271.782076,-18.285501 269.162863,7.823334 263.948157,33.576963 256.185182,58.742155 245.944241,83.091014 233.318079,106.40303 218.421039,128.467087 201.388031,149.083369 182.37331,168.065173 161.549074,185.240595 139.103912,200.454093 115.241091,213.567891 90.176716,224.463227 64.137774,233.041434 37.360077,239.224823 10.086129,242.957399 -17.437073,244.205359 -44.960276,242.957399 -72.234223,239.224823 -99.01192,233.041434 -125.050863,224.463227 -150.115237,213.567891 -173.978059,200.454093 -196.42322,185.240595 -217.247456,168.065173 -236.262177,149.083369 -253.295185,128.467087 -268.192225,106.40303 -280.818388,83.091014 -291.059329,58.742155 -298.822303,33.576963 -304.03701,7.823334 -306.656223,-18.285501 -306.656223,-44.513095 -304.03701,-70.62193 -298.822303,-96.375558 -291.059329,-121.540752 -280.818388,-145.88961 -268.192225,-169.201626 -253.295185,-191.265683 -236.262177,-211.881966 -217.247456,-230.863769 -196.42322,-248.039192 -173.978059,-263.252689 -150.115237,-276.366487 -125.050863,-287.261824 -99.01192,-295.840029 -72.234223,-302.023419 -44.960276,-305.755995 -17.437073,-307.003955" transform="matrix(-.147784 0.191674-.201143-.155084 192.929641 193.610529)" filter="url(#erIXga2uZHS3-filter)" stroke-width="0"/><polygon points="-93.603778,-307.003955 -73.328891,-305.931641 -53.237617,-302.724413 -33.511904,-297.411316 -14.330393,-290.040466 4.133206,-280.678612 21.711683,-269.410539 38.245847,-256.338293 53.58596,-241.580256 67.593099,-225.270081 80.140414,-207.555473 91.114275,-188.596861 100.415301,-168.565937 107.95926,-147.644102 113.677833,-126.020829 117.519231,-103.891941 119.448667,-81.457841 119.448667,-58.921697 117.519231,-36.487596 113.677833,-14.358708 107.95926,7.264564 100.415301,28.186399 91.114275,48.217324 80.140414,67.175936 67.593099,84.890542 53.58596,101.200718 38.245847,115.958755 21.711683,129.031002 4.133206,140.299075 -14.330393,149.660927 -33.511904,157.031779 -53.237617,162.344876 -73.328891,165.552104 -93.603778,166.624417 -113.878665,165.552104 -133.969939,162.344876 -153.695651,157.031779 -172.877163,149.660927 -191.340761,140.299075 -208.91924,129.031002 -225.453402,115.958755 -240.793515,101.200718 -254.800654,84.890542 -267.34797,67.175936 -278.321831,48.217324 -287.622857,28.186399 -295.166816,7.264564 -300.885389,-14.358708 -304.726787,-36.487596 -306.656223,-58.921697 -306.656223,-81.457841 -304.726787,-103.891941 -300.885389,-126.020829 -295.166816,-147.644102 -287.622857,-168.565937 -278.321831,-188.596861 -267.34797,-207.555473 -254.800654,-225.270081 -240.793515,-241.580256 -225.453402,-256.338293 -208.91924,-269.410539 -191.340761,-280.678612 -172.877163,-290.040466 -153.695651,-297.411316 -133.969939,-302.724413 -113.878665,-305.931641 -93.603778,-307.003955" transform="matrix(-.071649 0.092928-.083604-.06446 189.247579 199.311818)" filter="url(#erIXga2uZHS4-filter)" fill="#f3eded" stroke-width="0"/><polygon points="0,-307.003955 9.643227,-306.852467 19.276938,-306.398153 28.891624,-305.641461 38.477798,-304.583137 48.025999,-303.224227 57.526805,-301.566071 66.970838,-299.610306 76.348779,-297.358861 85.651373,-294.81396 94.869439,-291.978112 103.993881,-288.854117 113.015694,-285.445059 121.925973,-281.7543 130.715926,-277.785484 139.376879,-273.542527 147.900283,-269.029617 156.277728,-264.251207 164.500945,-259.212013 172.56182,-253.917008 180.452397,-248.371417 188.16489,-242.580714 195.691686,-236.550613 203.025358,-230.287065 210.158669,-223.796252 217.084578,-217.084579 223.796252,-210.158669 230.287065,-203.025358 236.550613,-195.691686 242.580714,-188.16489 248.371417,-180.452397 253.917007,-172.56182 259.212013,-164.500945 264.251207,-156.277728 269.029617,-147.900283 273.542527,-139.376879 277.785484,-130.715927 281.7543,-121.925973 285.445059,-113.015694 288.854117,-103.993881 291.978112,-94.86944 294.81396,-85.651373 297.358861,-76.348779 299.610306,-66.970838 301.566071,-57.526805 303.224227,-48.026 304.583137,-38.477799 305.641461,-28.891625 306.398153,-19.276938 306.852467,-9.643227 307.003955,0 306.852467,9.643227 306.398153,19.276938 305.641461,28.891624 304.583137,38.477798 303.224227,48.025999 301.566071,57.526805 299.610306,66.970838 297.358861,76.348779 294.81396,85.651373 291.978112,94.869439 288.854117,103.993881 285.445059,113.015693 281.7543,121.925973 277.785484,130.715926 273.542527,139.376879 269.029617,147.900283 264.251207,156.277728 259.212013,164.500945 253.917007,172.56182 248.371417,180.452397 242.580714,188.164889 236.550613,195.691686 230.287065,203.025358 223.796252,210.158669 217.084578,217.084578 210.158669,223.796252 203.025358,230.287065 195.691686,236.550613 188.16489,242.580714 180.452397,248.371417 172.56182,253.917007 164.500945,259.212012 156.277728,264.251206 147.900283,269.029616 139.376879,273.542527 130.715926,277.785484 121.925973,281.7543 113.015694,285.445058 103.993881,288.854117 94.869439,291.978112 85.651373,294.813959 76.348779,297.358861 66.970838,299.610306 57.526805,301.566071 48.025999,303.224227 38.477798,304.583137 28.891624,305.641461 19.276938,306.398153 9.643227,306.852467 0,307.003955 -9.643227,306.852467 -19.276938,306.398153 -28.891624,305.641461 -38.477798,304.583137 -48.025999,303.224227 -57.526805,301.566071 -66.970838,299.610306 -76.348779,297.358861 -85.651373,294.813959 -94.869439,291.978112 -103.993881,288.854117 -113.015694,285.445058 -121.925973,281.7543 -130.715926,277.785484 -139.376879,273.542527 -147.900283,269.029616 -156.277728,264.251206 -164.500945,259.212012 -172.56182,253.917007 -180.452397,248.371417 -188.16489,242.580714 -195.691686,236.550613 -203.025358,230.287065 -210.158669,223.796252 -217.084578,217.084578 -223.796252,210.158669 -230.287065,203.025358 -236.550613,195.691686 -242.580714,188.164889 -248.371417,180.452397 -253.917007,172.56182 -259.212013,164.500945 -264.251207,156.277728 -269.029617,147.900283 -273.542527,139.376879 -277.785484,130.715926 -281.7543,121.925973 -285.445059,113.015693 -288.854117,103.993881 -291.978112,94.869439 -294.81396,85.651373 -297.358861,76.348779 -299.610306,66.970838 -301.566071,57.526805 -303.224227,48.025999 -304.583137,38.477798 -305.641461,28.891624 -306.398153,19.276938 -306.852467,9.643227 -307.003955,0 -306.852467,-9.643227 -306.398153,-19.276938 -305.641461,-28.891625 -304.583137,-38.477799 -303.224227,-48.026 -301.566071,-57.526805 -299.610306,-66.970838 -297.358861,-76.348779 -294.81396,-85.651373 -291.978112,-94.86944 -288.854117,-103.993881 -285.445059,-113.015694 -281.7543,-121.925973 -277.785484,-130.715927 -273.542527,-139.376879 -269.029617,-147.900283 -264.251207,-156.277728 -259.212013,-164.500945 -253.917007,-172.56182 -248.371417,-180.452397 -242.580714,-188.16489 -236.550613,-195.691686 -230.287065,-203.025358 -223.796252,-210.158669 -217.084578,-217.084579 -210.158669,-223.796252 -203.025358,-230.287065 -195.691686,-236.550613 -188.16489,-242.580714 -180.452397,-248.371417 -172.56182,-253.917008 -164.500945,-259.212013 -156.277728,-264.251207 -147.900283,-269.029617 -139.376879,-273.542527 -130.715926,-277.785484 -121.925973,-281.7543 -113.015694,-285.445059 -103.993881,-288.854117 -94.869439,-291.978112 -85.651373,-294.81396 -76.348779,-297.358861 -66.970838,-299.610306 -57.526805,-301.566071 -48.025999,-303.224227 -38.477798,-304.583137 -28.891624,-305.641461 -19.276938,-306.398153 -9.643227,-306.852467 0,-307.003955" transform="matrix(-.342328 0.443997-.44946-.346541 394.143792 403.16526)" filter="url(#erIXga2uZHS5-filter)" fill="#d2dbed"/><polygon points="6.322724,-307.003955 16.164552,-306.871404 25.996669,-306.47388 35.809369,-305.811777 45.592969,-304.885748 55.337815,-303.696706 65.034289,-302.245825 74.672821,-300.534538 84.2439,-298.564531 93.73808,-296.337752 103.145992,-293.856395 112.458351,-291.12291 121.665968,-288.139996 130.759753,-284.910595 139.730735,-281.437895 148.570059,-277.725322 157.269002,-273.776542 165.81898,-269.59545 174.211554,-265.186172 182.438442,-260.553061 190.491525,-255.700689 198.362856,-250.633844 206.044666,-245.357526 213.529374,-239.876944 220.809595,-234.197505 227.878143,-228.324814 234.728043,-222.264667 241.352534,-216.023045 247.745079,-209.606108 253.89937,-203.020187 259.809332,-196.271783 265.469133,-189.367555 270.873189,-182.314318 276.016165,-175.119032 280.892986,-167.788797 285.498839,-160.330848 289.829179,-152.752545 293.879733,-145.061366 297.646503,-137.264903 301.12577,-129.370848 304.314103,-121.386994 307.208355,-113.321217 309.805668,-105.18148 312.103482,-96.975814 314.099526,-88.712318 315.791831,-80.399147 317.178728,-72.044504 318.258848,-63.656636 319.031124,-55.243818 319.494795,-46.814354 319.649402,-38.376564 319.494795,-29.938774 319.031124,-21.509311 318.258848,-13.096494 317.178728,-4.708625 315.791831,3.646017 314.099526,11.959189 312.103482,20.222685 309.805668,28.428351 307.208355,36.568088 304.314103,44.633864 301.12577,52.617719 297.646503,60.511773 293.879733,68.308237 289.829179,75.999415 285.498839,83.577719 280.892986,91.035668 276.016165,98.365903 270.873189,105.561189 265.469133,112.614427 259.809332,119.518654 253.89937,126.267058 247.745079,132.852979 241.352534,139.269916 234.728043,145.511538 227.878143,151.571685 220.809595,157.444376 213.529374,163.123815 206.044666,168.604397 198.362856,173.880715 190.491525,178.94756 182.438442,183.799932 174.211554,188.433043 165.81898,192.84232 157.269002,197.023412 148.570059,200.972193 139.730735,204.684766 130.759753,208.157466 121.665968,211.386866 112.458351,214.369781 103.145992,217.103266 93.73808,219.584622 84.2439,221.811403 74.672821,223.781409 65.034289,225.492697 55.337815,226.943577 45.592969,228.132619 35.809369,229.058649 25.996669,229.720751 16.164552,230.118275 6.322724,230.250826 -3.519105,230.118275 -13.351221,229.720751 -23.163921,229.058649 -32.947522,228.132619 -42.692367,226.943577 -52.388842,225.492697 -62.027374,223.781409 -71.598453,221.811403 -81.092633,219.584622 -90.500544,217.103266 -99.812904,214.369781 -109.02052,211.386866 -118.114306,208.157466 -127.085287,204.684766 -135.924612,200.972193 -144.623555,197.023412 -153.173533,192.84232 -161.566106,188.433043 -169.792994,183.799932 -177.846077,178.94756 -185.717408,173.880715 -193.399218,168.604397 -200.883926,163.123815 -208.164147,157.444376 -215.232695,151.571685 -222.082596,145.511538 -228.707086,139.269916 -235.099632,132.852979 -241.253922,126.267058 -247.163884,119.518654 -252.823685,112.614427 -258.227741,105.561189 -263.370717,98.365903 -268.247538,91.035668 -272.853391,83.577719 -277.183732,75.999415 -281.234285,68.308237 -285.001055,60.511773 -288.480322,52.617719 -291.668656,44.633864 -294.562908,36.568088 -297.160221,28.428351 -299.458034,20.222685 -301.454078,11.959189 -303.146384,3.646017 -304.53328,-4.708625 -305.613401,-13.096494 -306.385677,-21.509311 -306.849347,-29.938774 -307.003955,-38.376564 -306.849347,-46.814354 -306.385677,-55.243818 -305.613401,-63.656636 -304.53328,-72.044504 -303.146384,-80.399147 -301.454078,-88.712318 -299.458034,-96.975814 -297.160221,-105.18148 -294.562908,-113.321217 -291.668656,-121.386994 -288.480322,-129.370848 -285.001055,-137.264903 -281.234285,-145.061366 -277.183732,-152.752545 -272.853391,-160.330848 -268.247538,-167.788797 -263.370717,-175.119032 -258.227741,-182.314318 -252.823685,-189.367555 -247.163884,-196.271783 -241.253922,-203.020187 -235.099632,-209.606108 -228.707086,-216.023045 -222.082596,-222.264667 -215.232695,-228.324814 -208.164147,-234.197505 -200.883926,-239.876944 -193.399218,-245.357526 -185.717408,-250.633844 -177.846077,-255.700689 -169.792994,-260.553061 -161.566106,-265.186172 -153.173533,-269.59545 -144.623555,-273.776542 -135.924612,-277.725322 -127.085287,-281.437895 -118.114306,-284.910595 -109.02052,-288.139996 -99.812904,-291.12291 -90.500544,-293.856395 -81.092633,-296.337752 -71.598453,-298.564531 -62.027374,-300.534538 -52.388842,-302.245825 -42.692367,-303.696706 -32.947522,-304.885748 -23.163921,-305.811777 -13.351221,-306.47388 -3.519105,-306.871404 6.322724,-307.003955" transform="matrix(-.136413 0.176927-.206367-.159112 380.168284 366.020948)" filter="url(#erIXga2uZHS6-filter)"/><polygon points="-195.10157,-307.003955 -191.586631,-306.956615 -188.075161,-306.814643 -184.570625,-306.578177 -181.076482,-306.247453 -177.59618,-305.822795 -174.133154,-305.304623 -170.690821,-304.693449 -167.272578,-303.989875 -163.8818,-303.194597 -160.521831,-302.308398 -157.195989,-301.332153 -153.907554,-300.266827 -150.659774,-299.113469 -147.455852,-297.873219 -144.29895,-296.5473 -141.192185,-295.137022 -138.138621,-293.643775 -135.141273,-292.069033 -132.203099,-290.41435 -129.326998,-288.68136 -126.515808,-286.871773 -123.772305,-284.987373 -121.099195,-283.030023 -118.499116,-281.001651 -115.974634,-278.904262 -113.528242,-276.739924 -111.162352,-274.510773 -108.8793,-272.21901 -106.681339,-269.866895 -104.570638,-267.456751 -102.549281,-264.990955 -100.619261,-262.471942 -98.782484,-259.902197 -97.040762,-257.284256 -95.395814,-254.620703 -93.849264,-251.914166 -92.402638,-249.167316 -91.057363,-246.382865 -89.814768,-243.56356 -88.676077,-240.712183 -87.642416,-237.831549 -86.714804,-234.9245 -85.894156,-231.993905 -85.181283,-229.042656 -84.576889,-226.073666 -84.081568,-223.089865 -83.695811,-220.094198 -83.419998,-217.08962 -83.254402,-214.079098 -83.199185,-211.065601 -83.254402,-208.052105 -83.419998,-205.041582 -83.695811,-202.037005 -84.081568,-199.041337 -84.576889,-196.057536 -85.181283,-193.088546 -85.894156,-190.137298 -86.714804,-187.206703 -87.642416,-184.299654 -88.676077,-181.41902 -89.814768,-178.567643 -91.057363,-175.748338 -92.402638,-172.963886 -93.849264,-170.217037 -95.395814,-167.5105 -97.040762,-164.846947 -98.782484,-162.229006 -100.619261,-159.659261 -102.549281,-157.140247 -104.570638,-154.674452 -106.681339,-152.264308 -108.8793,-149.912193 -111.162352,-147.62043 -113.528242,-145.391279 -115.974634,-143.226941 -118.499116,-141.129551 -121.099195,-139.10118 -123.772305,-137.143829 -126.515808,-135.25943 -129.326998,-133.449843 -132.203099,-131.716853 -135.141273,-130.06217 -138.138621,-128.487428 -141.192185,-126.994181 -144.29895,-125.583902 -147.455852,-124.257983 -150.659774,-123.017733 -153.907554,-121.864376 -157.195989,-120.799049 -160.521831,-119.822805 -163.8818,-118.936606 -167.272578,-118.141327 -170.690821,-117.437754 -174.133154,-116.826579 -177.59618,-116.308408 -181.076482,-115.88375 -184.570625,-115.553025 -188.075161,-115.31656 -191.586631,-115.174587 -195.10157,-115.127248 -198.616509,-115.174587 -202.127979,-115.31656 -205.632514,-115.553025 -209.126658,-115.88375 -212.606959,-116.308408 -216.069986,-116.826579 -219.512319,-117.437754 -222.930561,-118.141327 -226.32134,-118.936606 -229.681308,-119.822805 -233.007151,-120.799049 -236.295585,-121.864376 -239.543366,-123.017733 -242.747288,-124.257983 -245.90419,-125.583902 -249.010955,-126.994181 -252.064519,-128.487428 -255.061866,-130.06217 -258.00004,-131.716853 -260.876141,-133.449843 -263.687331,-135.25943 -266.430835,-137.143829 -269.103945,-139.10118 -271.704024,-141.129551 -274.228505,-143.226941 -276.674898,-145.391279 -279.040788,-147.62043 -281.32384,-149.912193 -283.5218,-152.264308 -285.632501,-154.674452 -287.653859,-157.140247 -289.583879,-159.659261 -291.420656,-162.229006 -293.162378,-164.846947 -294.807325,-167.5105 -296.353875,-170.217037 -297.800501,-172.963886 -299.145776,-175.748338 -300.388372,-178.567643 -301.527063,-181.41902 -302.560724,-184.299654 -303.488336,-187.206703 -304.308983,-190.137298 -305.021856,-193.088546 -305.626251,-196.057536 -306.121571,-199.041337 -306.507329,-202.037005 -306.783141,-205.041582 -306.948738,-208.052105 -307.003955,-211.065601 -306.948738,-214.079098 -306.783141,-217.08962 -306.507329,-220.094198 -306.121571,-223.089865 -305.626251,-226.073666 -305.021856,-229.042656 -304.308983,-231.993905 -303.488336,-234.9245 -302.560724,-237.831549 -301.527063,-240.712183 -300.388372,-243.56356 -299.145776,-246.382865 -297.800501,-249.167316 -296.353875,-251.914166 -294.807325,-254.620703 -293.162378,-257.284256 -291.420656,-259.902197 -289.583879,-262.471942 -287.653859,-264.990955 -285.632501,-267.456751 -283.5218,-269.866895 -281.32384,-272.21901 -279.040788,-274.510773 -276.674898,-276.739924 -274.228505,-278.904262 -271.704024,-281.001651 -269.103945,-283.030023 -266.430835,-284.987373 -263.687331,-286.871773 -260.876141,-288.68136 -258.00004,-290.41435 -255.061866,-292.069033 -252.064519,-293.643775 -249.010955,-295.137022 -245.90419,-296.5473 -242.747288,-297.873219 -239.543366,-299.113469 -236.295585,-300.266827 -233.007151,-301.332153 -229.681308,-302.308398 -226.32134,-303.194597 -222.930561,-303.989875 -219.512319,-304.693449 -216.069986,-305.304623 -212.606959,-305.822795 -209.126658,-306.247453 -205.632514,-306.578177 -202.127979,-306.814643 -198.616509,-306.956615 -195.10157,-307.003955" transform="matrix(-.136413 0.176927-.206367-.159112 317.054044 374.181382)" filter="url(#erIXga2uZHS7-filter)" fill="#fff"/></svg>
